<svg xmlns="http://www.w3.org/2000/svg" width="22" height="22" viewBox="0 0 22 22">
  <path id="Icon_awesome-spotify" data-name="Icon awesome-spotify" d="M11,.563a11,11,0,1,0,11,11A11,11,0,0,0,11,.563Zm4.467,16.185a.846.846,0,0,1-.475-.16C12.224,14.92,9,14.849,5.824,15.5a2.864,2.864,0,0,1-.528.115.691.691,0,0,1-.7-.7.7.7,0,0,1,.6-.745c3.633-.8,7.345-.732,10.512,1.162a.75.75,0,0,1,.43.732.67.67,0,0,1-.674.683Zm1.193-2.91a1.1,1.1,0,0,1-.546-.186,14.374,14.374,0,0,0-10.583-1.3A1.827,1.827,0,0,1,5,12.463a.861.861,0,0,1-.86-.86.873.873,0,0,1,.688-.918,14.919,14.919,0,0,1,4.338-.6A15.527,15.527,0,0,1,17.019,12.1a.925.925,0,0,1,.5.874.859.859,0,0,1-.86.865Zm1.375-3.38a1.02,1.02,0,0,1-.572-.173C14.3,8.4,8.658,7.948,5,8.968a2.107,2.107,0,0,1-.572.115A1.024,1.024,0,0,1,3.4,8.036a1.048,1.048,0,0,1,.772-1.06A18.59,18.59,0,0,1,9.381,6.3a18.733,18.733,0,0,1,9.11,2.12,1.041,1.041,0,0,1,.572,1,1.028,1.028,0,0,1-1.029,1.033Z" transform="translate(0 -0.563)" fill="#2ace3a"/>
</svg>
