<svg xmlns="http://www.w3.org/2000/svg" width="31.617" height="23" viewBox="0 0 31.617 23">
  <path id="Icon_awesome-youtube" data-name="Icon awesome-youtube" d="M32.006,8.1a4.045,4.045,0,0,0-2.8-2.911C26.745,4.5,16.858,4.5,16.858,4.5s-9.887,0-12.352.688A4.045,4.045,0,0,0,1.711,8.1a44.576,44.576,0,0,0-.661,7.925,44.576,44.576,0,0,0,.661,7.925,3.982,3.982,0,0,0,2.8,2.864c2.466.688,12.352.688,12.352.688s9.887,0,12.352-.688a3.982,3.982,0,0,0,2.8-2.864,44.577,44.577,0,0,0,.661-7.925A44.577,44.577,0,0,0,32.006,8.1ZM13.625,20.887V11.16l8.263,4.864-8.263,4.864Z" transform="translate(-1.05 -4.5)" fill="#ee0808"/>
</svg>
